<mxfile host="app.diagrams.net" modified="2020-03-15T05:54:22.261Z" agent="Mozilla/5.0 (Windows NT 10.0; Win64; x64) AppleWebKit/537.36 (KHTML, like Gecko) Chrome/80.0.3987.132 Safari/537.36" etag="QDK2RGVwV3ECauiYSsCn" version="12.8.5" type="github">
  <diagram id="C5RBs43oDa-KdzZeNtuy" name="Page-1">
    <mxGraphModel dx="972" dy="444" grid="1" gridSize="10" guides="1" tooltips="1" connect="1" arrows="1" fold="1" page="1" pageScale="1" pageWidth="827" pageHeight="1169" math="0" shadow="0">
      <root>
        <mxCell id="WIyWlLk6GJQsqaUBKTNV-0" />
        <mxCell id="WIyWlLk6GJQsqaUBKTNV-1" parent="WIyWlLk6GJQsqaUBKTNV-0" />
        <mxCell id="vzHL8BA-FCyweB06sf6c-2" value="Class Component LifeCycle - Unmount" style="text;html=1;strokeColor=none;fillColor=none;align=center;verticalAlign=middle;whiteSpace=wrap;rounded=0;" parent="WIyWlLk6GJQsqaUBKTNV-1" vertex="1">
          <mxGeometry x="225.5" y="40" width="309" height="30" as="geometry" />
        </mxCell>
        <mxCell id="vzHL8BA-FCyweB06sf6c-4" value="componentWillUnmount()" style="rounded=1;whiteSpace=wrap;html=1;fontSize=12;glass=0;strokeWidth=1;shadow=0;" parent="WIyWlLk6GJQsqaUBKTNV-1" vertex="1">
          <mxGeometry x="225.5" y="97.5" width="301" height="40" as="geometry" />
        </mxCell>
        <mxCell id="vzHL8BA-FCyweB06sf6c-11" value="&lt;div&gt;&lt;span&gt;DO: perform clean up any set at componentDidMount()&lt;/span&gt;&lt;br&gt;&lt;/div&gt;&lt;div&gt;Don&#39;t: call setState()&lt;/div&gt;" style="html=1;shadow=0;dashed=0;shape=mxgraph.bootstrap.rrect;align=center;rSize=5;strokeColor=none;fillColor=#0D5B9D;fontColor=#ffffff;fontStyle=1;whiteSpace=wrap;fontSize=10;" parent="WIyWlLk6GJQsqaUBKTNV-1" vertex="1">
          <mxGeometry x="586.5" y="90" width="180" height="55" as="geometry" />
        </mxCell>
      </root>
    </mxGraphModel>
  </diagram>
</mxfile>
